<?xml version="1.0" encoding="UTF-8"?>
<svg version="1.1" xmlns="http://www.w3.org/2000/svg" width="424" height="516">
<path d="M0 0 C139.92 0 279.84 0 424 0 C424 170.28 424 340.56 424 516 C284.08 516 144.16 516 0 516 C0 345.72 0 175.44 0 0 Z " fill="#EEEAE2" transform="translate(0,0)"/>
<path d="M0 0 C0.92653381 0.00176239 1.85306763 0.00352478 2.80767822 0.00534058 C17.25051288 0.06655883 30.65854834 1.10170391 44.5 5.5 C45.33466797 5.74637207 46.16933594 5.99274414 47.02929688 6.24658203 C73.03556995 13.97373329 96.31512332 28.4002633 115.5 47.5 C116.28890625 48.25410156 117.0778125 49.00820312 117.890625 49.78515625 C144.01486969 76.3851736 161.47352144 116.12750103 161.703125 153.55859375 C161.70882507 154.30601334 161.71452515 155.05343292 161.72039795 155.82350159 C161.7297838 157.39916601 161.73635616 158.9748495 161.74023438 160.55053711 C161.74984904 162.90060082 161.78089534 165.24975341 161.8125 167.59960938 C161.90872136 181.31218811 160.00833234 194.42972484 156.1875 207.625 C155.97367676 208.37031982 155.75985352 209.11563965 155.53955078 209.88354492 C149.7804564 229.40417207 140.65364973 248.86249195 127.5 264.5 C126.80173096 265.34401367 126.80173096 265.34401367 126.08935547 266.20507812 C122.63694029 270.37360808 119.10553155 274.46333081 115.5 278.5 C114.78457031 279.30179687 114.06914062 280.10359375 113.33203125 280.9296875 C102.34612771 292.53182161 88.54864102 301.98644776 74.5 309.5 C73.7270459 309.91378906 72.9540918 310.32757813 72.15771484 310.75390625 C58.56678409 317.89720776 42.21665968 325.92617926 26.5 325.5 C28.14750838 320.77836985 30.66140239 316.76755468 33.3125 312.5625 C33.73853516 311.87220703 34.16457031 311.18191406 34.60351562 310.47070312 C38.83638067 303.71476874 42.53387401 298.62122583 49.8125 294.875 C62.22482671 288.17800067 73.33344829 279.23059323 83.5 269.5 C84.28246094 268.78070313 85.06492187 268.06140625 85.87109375 267.3203125 C106.80256223 247.42704486 118.60868843 222.94013924 126.5 195.5 C126.72187988 194.75363281 126.94375977 194.00726563 127.17236328 193.23828125 C132.96934988 172.95140001 131.90698299 144.33192885 124.875 124.5625 C124.61992676 123.82161133 124.36485352 123.08072266 124.10205078 122.31738281 C121.26646299 114.37908648 117.60857182 106.85218115 113.5 99.5 C112.94570313 98.38109375 112.39140625 97.2621875 111.8203125 96.109375 C109.30394399 93.2795195 108.87931323 93.07880389 105.3359375 92.6484375 C103.72491318 92.57410277 102.11254263 92.52512551 100.5 92.5 C99.36353027 92.43087402 99.36353027 92.43087402 98.20410156 92.36035156 C75.78794762 91.0507511 56.73687685 96.97721702 39.5 111.5 C29.48039515 120.94801666 23.38351144 132.71555088 22.25390625 146.50390625 C21.97349905 159.15521922 24.13858779 169.98369684 31.5 180.5 C32.1607251 181.04640137 32.8214502 181.59280273 33.50219727 182.15576172 C37.02080764 185.07184086 39.20079592 187.12450404 40.19335938 191.6875 C40.39911369 195.51993386 40.35395254 199.29538244 40.1875 203.125 C40.15471607 204.51444124 40.12389304 205.90393005 40.0949707 207.29345703 C39.80998397 218.0236643 38.74377365 228.5952545 36.89257812 239.16699219 C36.53384921 241.29884136 36.24477938 243.42462272 35.984375 245.5703125 C33.16963541 265.796227 25.56192884 286.78339339 15.5 304.5 C14.71335484 305.93147447 13.92826239 307.36380303 13.14453125 308.796875 C9.31372011 315.74355697 9.31372011 315.74355697 7.51123047 318.76489258 C6.53066912 320.44737676 5.64987593 322.18678463 4.7734375 323.92578125 C2.5 326.5 2.5 326.5 -1.4140625 327.19140625 C-2.98494531 327.18399881 -4.55594937 327.13870878 -6.125 327.0625 C-6.96458252 327.04026367 -7.80416504 327.01802734 -8.66918945 326.99511719 C-17.43330984 326.65712059 -25.92918988 325.28763172 -34.5 323.5 C-35.16563965 323.37141602 -35.8312793 323.24283203 -36.51708984 323.11035156 C-53.46857413 319.79678114 -69.2695099 312.16804289 -83.5 302.5 C-84.05848633 302.12262695 -84.61697266 301.74525391 -85.19238281 301.35644531 C-121.95354374 276.35066398 -148.10611836 239.74708589 -157.125 195.72070312 C-158.70424372 186.36861922 -158.65658327 176.94113363 -158.63037109 167.4855957 C-158.6250337 165.20191739 -158.63033498 162.91843782 -158.63671875 160.63476562 C-158.64471465 148.04998157 -158.45697627 135.58310566 -155.375 123.3125 C-155.15328125 122.42232178 -154.9315625 121.53214355 -154.703125 120.61499023 C-147.19008186 91.49420798 -131.58120499 65.83892144 -110.5 44.5 C-109.75878906 43.73429687 -109.01757812 42.96859375 -108.25390625 42.1796875 C-79.64096023 14.53580739 -39.27556023 -0.19961998 0 0 Z " fill="#162531" transform="translate(234.5,71.5)"/>
<path d="M0 0 C1.31677734 0.94552734 1.31677734 0.94552734 2.66015625 1.91015625 C14.59411796 10.9641272 24.52079343 23.15654358 28 38 C28.42212381 41.8022106 28.4774936 45.55198955 28.4375 49.375 C28.42920166 50.39432617 28.42090332 51.41365234 28.41235352 52.46386719 C28.25068722 59.63701786 27.58420858 65.66438424 24 72 C23.21882813 73.42505859 23.21882813 73.42505859 22.421875 74.87890625 C16.81203578 84.36762079 9.75603364 89.9703812 0 95 C-0.66 95 -1.32 95 -2 95 C1.04869851 99.95790822 4.59884582 103.8751287 8.75 107.9375 C9.37398682 108.5550415 9.99797363 109.17258301 10.64086914 109.80883789 C14.40937723 113.51465995 18.26106246 117.07922812 22.28125 120.51171875 C36.82431483 133.1046908 48.43988833 149.87977666 57 167 C57.13415472 169.6723621 57.04318541 172.32250488 57 175 C26.59154348 180.38032722 -3.00542057 176.92508429 -28.76171875 159.3046875 C-51.17993484 143.34962418 -65.53429416 122.7263224 -75 97 C-75.35707031 96.03578125 -75.71414062 95.0715625 -76.08203125 94.078125 C-79.96051954 82.38534256 -80.36569684 69.89541562 -80.3125 57.6875 C-80.31034485 57.01090332 -80.3081897 56.33430664 -80.30596924 55.63720703 C-80.22182814 39.13582364 -77.97929372 25.02893289 -71 10 C-70.71044434 9.37399902 -70.42088867 8.74799805 -70.12255859 8.10302734 C-63.49196429 -6.04732143 -63.49196429 -6.04732143 -59 -11 C-39.9540917 -15.74709195 -15.75006156 -11.53086698 0 0 Z " fill="#EDEAE2" transform="translate(187,175)"/>
<path d="M0 0 C1.83504913 1.55788025 3.61137229 3.08505342 5.25 4.84765625 C5.25 5.17765625 5.25 5.50765625 5.25 5.84765625 C4.56711914 5.93740723 3.88423828 6.0271582 3.18066406 6.11962891 C-11.21554004 8.05600276 -24.88303562 10.61734093 -38.67285156 15.19995117 C-40.66406899 15.82086089 -42.64736878 16.31531986 -44.6796875 16.78125 C-49.56220632 17.95874898 -54.11658595 19.87211787 -58.75 21.78515625 C-61.28713917 22.82115474 -63.82499846 23.85486811 -66.3671875 24.87841797 C-67.90084985 25.50225399 -69.42770213 26.14324653 -70.9453125 26.80517578 C-76.46099463 29.11080431 -79.57774412 29.10031793 -85.07714844 26.92871094 C-87.9409999 25.72503281 -90.78214954 24.47508486 -93.625 23.22265625 C-115.08091114 14.03432665 -137.37651914 7.80911858 -160.75 6.84765625 C-160.75 6.18765625 -160.75 5.52765625 -160.75 4.84765625 C-156.99402934 1.53932455 -152.86000545 -1.30256074 -148.75 -4.15234375 C-148.1936084 -4.5390625 -147.6372168 -4.92578125 -147.06396484 -5.32421875 C-136.14867264 -12.74725298 -124.31570481 -17.2706833 -111.75 -21.15234375 C-110.97205078 -21.39388184 -110.19410156 -21.63541992 -109.39257812 -21.88427734 C-73.00608389 -32.61301278 -29.63931103 -23.19781304 0 0 Z " fill="#EDE9E2" transform="translate(313.75,129.15234375)"/>
<path d="M0 0 C7.47457225 4.48726429 14.12494548 10.66372169 16.97265625 19.0625 C19.3031334 30.91552285 18.09557004 41.39115071 11.9375 51.8125 C2.96218405 60.3154309 -5.87651241 61.60536546 -17.67578125 61.40625 C-23.51165027 61.13296052 -27.73709216 59.52595841 -32.4375 56.0625 C-33.41396484 55.39347656 -33.41396484 55.39347656 -34.41015625 54.7109375 C-40.06109667 50.41574287 -44.14887407 44.09136872 -45.4375 37.0625 C-46.14519174 28.50059012 -45.41828668 21.70281689 -41.4375 14.0625 C-40.921875 13.03125 -40.40625 12 -39.875 10.9375 C-30.09278542 -0.60049668 -14.38534357 -6.55935477 0 0 Z " fill="#162531" transform="translate(180.4375,190.9375)"/>
<path d="M0 0 C8.88804021 5.24501171 15.04425874 11.42667516 18.24609375 21.359375 C19.9524654 29.81277936 18.88457576 37.90586042 14.6328125 45.44140625 C8.49411436 53.65911429 -0.99794316 59.12019973 -11.07421875 60.7265625 C-25.36409946 61.99072888 -25.36409946 61.99072888 -30.69921875 58.2265625 C-39.30701 50.19635032 -43.13600268 38.76398468 -43.63671875 27.1640625 C-43.32777048 18.35371023 -40.03685306 9.60443001 -33.84765625 3.1953125 C-23.69406506 -5.2138291 -11.72409297 -5.55923878 0 0 Z " fill="#172631" transform="translate(318.07421875,192.2734375)"/>
<path d="M0 0 C0.93625991 11.98932824 -3.11319438 20.36315231 -10 29.98046875 C-10.66 30.64691406 -11.32 31.31335938 -12 32 C-13.32 32 -14.64 32 -16 32 C-22.81223751 24.94933418 -26.90371332 13.87348778 -27.0625 4.1875 C-27.041875 3.135625 -27.02125 2.08375 -27 1 C-23.06254264 0.83231578 -19.12502757 0.6660268 -15.1875 0.5 C-14.06794922 0.45230469 -12.94839844 0.40460938 -11.79492188 0.35546875 C-10.72177734 0.31035156 -9.64863281 0.26523437 -8.54296875 0.21875 C-7.55321045 0.17685547 -6.56345215 0.13496094 -5.54370117 0.09179688 C-3.69674974 0.02514425 -1.84815371 0 0 0 Z " fill="#EDEAE3" transform="translate(248,258)"/>
<path d="M0 0 C0.66 1.32 1.32 2.64 2 4 C1.01 4.33 0.02 4.66 -1 5 C-1.73323796 7.01508358 -1.73323796 7.01508358 -2 9 C-0.02 9 1.96 9 4 9 C1.09907498 10.93395001 0.10325263 11.30131941 -3.1875 11.625 C-4.445625 11.74875 -5.70375 11.8725 -7 12 C-5.44298069 7.32894208 -2.91552627 3.91294315 0 0 Z " fill="#161C22" transform="translate(268,385)"/>
<path d="M0 0 C0.99 0.66 1.98 1.32 3 2 C-0.3 4.64 -3.6 7.28 -7 10 C-7.66 9.67 -8.32 9.34 -9 9 C-6.03 6.03 -3.06 3.06 0 0 Z " fill="#282D31" transform="translate(127,113)"/>
<path d="M0 0 C0.99 0.33 1.98 0.66 3 1 C2.01 1.33 1.02 1.66 0 2 C-0.2165625 2.8971875 -0.2165625 2.8971875 -0.4375 3.8125 C-1.18951488 6.7370023 -2.79712511 8.01030655 -5 10 C-5.99 9.67 -6.98 9.34 -8 9 C-5.36 6.03 -2.72 3.06 0 0 Z " fill="#E1E0DC" transform="translate(361,336)"/>
<path d="M0 0 C0.99 0.33 1.98 0.66 3 1 C0.19195732 3.96404505 -2.18315774 6.44499019 -6 8 C-6 7.01 -6 6.02 -6 5 C-3.1875 2.25 -3.1875 2.25 0 0 Z " fill="#121D24" transform="translate(151,193)"/>
<path d="M0 0 C0 3 0 3 -1.875 5.1875 C-4 7 -4 7 -6 7 C-6 7.66 -6 8.32 -6 9 C-7.32 8.67 -8.64 8.34 -10 8 C-6.7 5.36 -3.4 2.72 0 0 Z " fill="#E2E1DF" transform="translate(343,356)"/>
<path d="M0 0 C0.66 0.33 1.32 0.66 2 1 C0.02 3.31 -1.96 5.62 -4 8 C-4.66 7.34 -5.32 6.68 -6 6 C-4.02 4.02 -2.04 2.04 0 0 Z " fill="#E4E3E0" transform="translate(276,180)"/>
<path d="M0 0 C3.39417765 3.12621626 5.6062718 5.56541027 7 10 C6.01 10.495 6.01 10.495 5 11 C4.16151196 9.54462432 3.32936066 8.08559627 2.5 6.625 C1.80390625 5.40683594 1.80390625 5.40683594 1.09375 4.1640625 C0 2 0 2 0 0 Z " fill="#22272C" transform="translate(235,325)"/>
<path d="M0 0 C-1.98 0.33 -3.96 0.66 -6 1 C-6.33 1.99 -6.66 2.98 -7 4 C-8.32 3.34 -9.64 2.68 -11 2 C-3.57142857 -1.57142857 -3.57142857 -1.57142857 0 0 Z " fill="#4B4F52" transform="translate(163,190)"/>
</svg>
